<svg xmlns="http://www.w3.org/2000/svg" width="17" height="17" viewBox="0 0 30.049 37.214">
  <path id="Icon_metro-air" 
  data-name="Icon metro-air" d="M7.51,13.181c3.612-3.045,6.465-5.453,14.207-1.157,3.719,2.063,6.719,2.842,9.214,2.838,4.373,0,7.207-2.388,9.657-4.452a2.072,2.072,0,0,0-2.663-3.175c-3.61,3.049-6.465,5.457-14.207,1.157C13.489,2.721,8.7,6.761,4.848,10.009A2.071,2.071,0,0,0,7.51,13.181ZM37.926,17.6c-3.61,3.045-6.465,5.457-14.207,1.157C13.489,13.085,8.7,17.127,4.848,20.374A2.072,2.072,0,0,0,7.51,23.549c3.612-3.047,6.465-5.455,14.207-1.161,3.719,2.067,6.719,2.842,9.214,2.842,4.373,0,7.207-2.388,9.657-4.456A2.071,2.071,0,1,0,37.926,17.6Zm0,10.367c-3.61,3.049-6.465,5.457-14.207,1.161C13.489,23.456,8.7,27.5,4.848,30.744A2.071,2.071,0,0,0,7.51,33.916c3.612-3.045,6.465-5.451,14.207-1.157,3.719,2.063,6.719,2.842,9.214,2.842,4.373,0,7.207-2.392,9.657-4.456a2.072,2.072,0,0,0-2.663-3.175Z" 
  transform="translate(35.602 -4.112) rotate(90)" 
  fill="#f7f7f7"/>
</svg>
